# xmcd
#
# Track frame offsets:
#	150
#	13949
#	24359
#	40718
#	52971
#	64606
#	76789
#	89569
#	103576
#	114255
#	129146
#	139005
#	150275
#	162884
#
# Disc length: 2358 seconds
#
# Revision: 1
# Processed by: cddbd v1.5.2PL0 Copyright (c) Steve Scherf et al.
# Submitted via: audiograbber 1.83.01
#
DISCID=9909340e
DTITLE=Shootin' Pains - Pray Like Crazy
DYEAR=2007
DGENRE=
TTITLE0=Half Pint
TTITLE1=The Barstool Next Door
TTITLE2=Shady
TTITLE3=My Great Downfall
TTITLE4=Voodoo Doll
TTITLE5=Cell Phone
TTITLE6=The Mission
TTITLE7=Have A Nice Day
TTITLE8=Old Man Drinking Alone
TTITLE9=War Song
TTITLE10=My Career
TTITLE11=You Lied
TTITLE12=No Worky
TTITLE13=Lake McQueeny
EXTD=
EXTT0=
EXTT1=
EXTT2=
EXTT3=
EXTT4=
EXTT5=
EXTT6=
EXTT7=
EXTT8=
EXTT9=
EXTT10=
EXTT11=
EXTT12=
EXTT13=
PLAYORDER=
